<?xml version="1.0" standalone="no"?>
<!DOCTYPE svg PUBLIC "-//W3C//DTD SVG 20010904//EN"
 "http://www.w3.org/TR/2001/REC-SVG-20010904/DTD/svg10.dtd">
<svg version="1.0" xmlns="http://www.w3.org/2000/svg"
 width="500.000000pt" height="500.000000pt" viewBox="0 0 500.000000 500.000000"
 preserveAspectRatio="xMidYMid meet">

<g transform="translate(0.000000,500.000000) scale(0.100000,-0.100000)"
fill="#000000" stroke="none">
<path d="M2705 3844 c-66 -7 -174 -18 -240 -25 -149 -15 -206 -31 -253 -73
-26 -23 -51 -35 -84 -40 -32 -5 -53 -15 -65 -30 -13 -16 -33 -25 -68 -29 -30
-4 -56 -14 -65 -25 -9 -11 -32 -22 -53 -26 -20 -4 -45 -15 -55 -25 -9 -10 -34
-24 -55 -30 -20 -7 -42 -21 -47 -32 -6 -10 -19 -19 -29 -19 -10 0 -24 -7 -32
-16 -7 -8 -26 -22 -43 -31 -17 -9 -42 -27 -56 -40 -14 -13 -34 -32 -46 -43
-12 -11 -26 -20 -33 -20 -6 0 -16 -11 -22 -24 -6 -13 -22 -29 -35 -35 -13 -6
-24 -17 -24 -26 0 -8 -7 -15 -15 -15 -9 0 -21 -11 -27 -25 -6 -13 -19 -27 -30
-30 -10 -4 -18 -10 -18 -15 0 -5 -25 -39 -55 -75 -30 -37 -55 -74 -55 -81 0
-8 -11 -24 -25 -36 -14 -12 -25 -28 -25 -35 0 -7 -9 -21 -20 -31 -11 -9 -25
-35 -31 -56 -6 -22 -20 -46 -31 -55 -13 -11 -22 -33 -25 -64 -3 -26 -9 -47
-14 -47 -16 0 -39 -32 -39 -54 0 -13 -15 -54 -34 -92 -19 -39 -38 -100 -44
-138 -6 -38 -26 -118 -43 -179 -28 -94 -37 -112 -61 -126 -35 -20 -36 -41 -3
-41 20 0 25 -5 25 -25 0 -17 6 -25 17 -25 10 0 41 -10 70 -22 42 -17 53 -26
53 -45 0 -13 1 -23 3 -24 1 0 90 -4 197 -8 167 -7 202 -11 244 -29 27 -12 54
-22 60 -22 16 0 146 -66 166 -85 10 -9 36 -26 58 -38 42 -23 152 -94 187 -121
241 -187 521 -316 688 -316 109 0 301 58 397 121 14 9 45 29 70 45 46 29 191
169 222 214 10 14 42 59 73 100 30 41 63 91 73 110 10 19 38 69 62 110 48 83
124 240 151 310 9 25 31 81 49 125 18 44 41 116 51 160 10 44 26 109 35 145
22 91 16 366 -10 425 -10 22 -22 71 -27 108 -5 42 -16 78 -29 94 -11 14 -20
36 -20 49 0 19 -21 49 -68 96 -40 41 -168 157 -189 173 -16 12 -47 29 -70 39
-24 11 -43 22 -43 26 0 4 -18 10 -40 14 -24 4 -45 14 -52 26 -9 14 -19 18 -36
13 -31 -7 -111 16 -124 37 -10 15 -14 16 -41 2 -29 -15 -57 -12 -172 13 -5 1
-64 -3 -130 -11z m604 -752 c0 -24 8 -69 17 -100 14 -48 15 -68 5 -142 -27
-186 -34 -225 -41 -235 -5 -5 -16 -37 -25 -70 -10 -33 -23 -67 -30 -75 -7 -8
-18 -31 -24 -50 -6 -19 -27 -64 -46 -100 -19 -36 -45 -85 -56 -110 -12 -25
-28 -49 -35 -53 -8 -4 -14 -13 -14 -20 0 -23 -165 -235 -184 -236 -4 -1 -23
-13 -41 -28 -62 -53 -174 -105 -270 -125 -62 -13 -176 -4 -207 16 -13 8 -43
20 -68 26 -24 7 -57 23 -73 36 -16 13 -37 24 -48 24 -10 0 -19 7 -19 16 0 8
-16 22 -36 30 -19 8 -34 20 -31 27 6 18 52 20 67 3 32 -40 55 -23 293 214
l231 230 -81 0 c-45 0 -88 3 -97 6 -14 5 -16 47 -15 368 0 252 4 372 12 396
l12 35 71 3 c64 3 75 0 100 -21 24 -21 29 -34 35 -98 4 -41 8 -137 8 -215 1
-78 4 -169 7 -203 l7 -61 76 0 76 0 62 65 c34 35 64 72 67 82 4 10 29 36 57
58 29 22 80 68 114 101 l63 61 12 99 c7 55 17 110 23 124 l10 25 8 -30 c3 -16
7 -50 8 -73z m-921 70 c17 -17 19 -48 26 -384 4 -200 4 -372 0 -381 -5 -14
-21 -17 -98 -17 -127 0 -136 7 -136 109 0 43 -3 80 -6 84 -4 3 -18 -3 -33 -13
-21 -15 -35 -17 -75 -11 -57 10 -96 45 -96 89 0 21 -2 24 -10 12 -5 -8 -10
-70 -10 -136 0 -102 -3 -123 -16 -128 -25 -9 -137 -7 -154 4 -13 8 -15 58 -12
372 5 425 1 408 91 408 54 0 62 -3 94 -35 26 -26 38 -48 43 -80 3 -24 17 -59
30 -76 13 -18 24 -47 24 -63 0 -50 12 -58 43 -33 19 15 30 37 36 70 5 26 15
55 24 65 8 9 18 34 22 55 8 42 38 85 69 97 40 16 125 11 144 -8z m-351 -1198
c-3 -3 -12 -4 -19 -1 -8 3 -5 6 6 6 11 1 17 -2 13 -5z"/>
</g>
</svg>
